<?xml version="1.0"?>
<svg xmlns="http://www.w3.org/2000/svg" xmlns:xlink="http://www.w3.org/1999/xlink" version="1.1" viewBox="0 0 252 252" width="128px" height="128px"><g fill="none" fill-rule="nonzero" stroke="none" stroke-width="1" stroke-linecap="butt" stroke-linejoin="miter" stroke-miterlimit="10" stroke-dasharray="" stroke-dashoffset="0" font-family="none" font-weight="none" font-size="none" text-anchor="none" style="mix-blend-mode: normal"><path d="M0,252v-252h252v252z" fill="none"/><g id="Layer_1"><g fill="#333333"><path d="M210.45938,108.87187c-1.575,-5.5125 -3.54375,-10.63125 -6.3,-15.55312l17.325,-17.325l-25.00313,-24.80625l-17.325,17.325c-9.64688,-5.5125 -20.67187,-8.46562 -32.09062,-8.6625l-6.3,-23.625l-34.05938,9.05625l6.3,23.625c-9.84375,5.70937 -17.91563,13.97813 -23.42812,23.42812l-23.625,-6.3l-8.85938,34.25625l23.625,6.3c0,5.5125 0.7875,11.025 2.16563,16.5375c1.575,5.5125 3.54375,10.63125 6.3,15.55313l-17.325,17.325l25.00312,24.80625l17.325,-17.325c9.64687,5.5125 20.67188,8.46563 32.09062,8.6625l6.3,23.625l34.05937,-9.05625l-6.3,-23.625c9.84375,-5.70938 17.91563,-13.97813 23.42812,-23.42812l23.625,6.3l9.05625,-34.05937l-23.625,-6.3c0,-5.70938 -0.7875,-11.22188 -2.3625,-16.73438zM154.74375,155.72812c-16.5375,4.33125 -33.27187,-5.31562 -37.8,-21.85312c-4.52813,-16.5375 5.31563,-33.27188 21.85312,-37.8c16.5375,-4.33125 33.27188,5.31563 37.8,21.85313c4.33125,16.5375 -5.5125,33.46875 -21.85313,37.8z"/></g><g fill="#ecf0f1"><path d="M190.77188,108.87187c-1.575,-5.5125 -3.54375,-10.63125 -6.3,-15.55312l17.325,-17.325l-25.00312,-24.80625l-17.325,17.325c-9.64688,-5.5125 -20.67187,-8.46562 -32.09062,-8.6625l-6.3,-23.625l-34.05938,9.05625l6.3,23.625c-9.84375,5.70937 -17.91563,13.97813 -23.42812,23.42812l-23.625,-6.3l-8.85937,34.25625l23.625,6.3c0,5.5125 0.7875,11.025 2.16563,16.5375c1.575,5.5125 3.54375,10.63125 6.3,15.55313l-17.325,17.325l25.00313,24.80625l17.325,-17.325c9.64687,5.5125 20.67187,8.46563 32.09062,8.6625l6.3,23.625l34.05937,-9.05625l-6.3,-23.625c9.84375,-5.70938 17.91563,-13.97813 23.42813,-23.42812l23.625,6.3l9.05625,-34.05937l-23.625,-6.3c0,-5.70938 -0.7875,-11.22188 -2.3625,-16.73438zM135.05625,155.72812c-16.5375,4.33125 -33.27187,-5.31562 -37.8,-21.85312c-4.52812,-16.5375 5.31563,-33.27188 21.85313,-37.8c16.5375,-4.33125 33.27187,5.31563 37.8,21.85313c4.33125,16.5375 -5.5125,33.46875 -21.85313,37.8z"/></g><g fill="#ffffff"><path d="M132.89063,221.48437c-2.55937,0 -4.92188,-1.77187 -5.70937,-4.33125l-5.11875,-19.29375c-9.05625,-0.59063 -18.1125,-3.15 -26.38125,-7.0875l-14.175,14.175c-2.3625,2.3625 -6.10312,2.3625 -8.26875,0l-25.2,-25.00313c-2.3625,-2.3625 -2.3625,-6.10313 0,-8.26875l14.175,-14.175c-1.96875,-4.13437 -3.54375,-8.46563 -4.725,-12.79687c-1.18125,-4.52812 -1.96875,-9.05625 -2.3625,-13.58438l-19.29375,-5.11875c-1.575,-0.39375 -2.75625,-1.37813 -3.54375,-2.75625c-0.7875,-1.37812 -0.98437,-2.95312 -0.59062,-4.52813l9.05625,-34.05938c0.39375,-1.575 1.37813,-2.75625 2.75625,-3.54375c1.37812,-0.7875 2.95313,-0.98437 4.52813,-0.59062l19.29375,5.11875c5.11875,-7.67813 11.61562,-14.175 19.29375,-19.29375l-5.11875,-19.29375c-0.7875,-3.15 0.98438,-6.3 4.13438,-7.28437l34.05937,-9.05625c3.15,-0.7875 6.3,0.98438 7.28438,4.13438l5.11875,19.29375c9.05625,0.59062 18.1125,3.15 26.38125,7.0875l14.175,-14.175c2.16562,-2.16562 6.10312,-2.16562 8.26875,0l25.00312,25.00313c2.3625,2.3625 2.3625,6.10313 0,8.26875l-14.175,14.175c1.96875,4.13438 3.54375,8.46562 4.725,12.79688c1.18125,4.52812 1.96875,9.05625 2.3625,13.58437l19.29375,5.11875c3.15,0.7875 4.92187,4.13437 4.13438,7.28437l-9.05625,34.05937c-0.39375,1.575 -1.37813,2.75625 -2.75625,3.54375c-1.37813,0.7875 -2.95312,0.98438 -4.52813,0.59063l-19.29375,-5.11875c-5.11875,7.67813 -11.61562,14.175 -19.29375,19.29375l5.11875,19.29375c0.7875,3.15 -0.98437,6.3 -4.13437,7.28438l-34.05937,9.05625c-0.39375,0.19687 -0.98437,0.19687 -1.37813,0.19687zM94.5,177.58125c0.98438,0 1.96875,0.19687 2.95312,0.7875c8.85938,5.11875 18.9,7.67813 29.1375,7.875c2.55938,0 4.92187,1.77188 5.70938,4.33125l4.725,17.91563l22.64063,-6.10313l-4.725,-17.91563c-0.59062,-2.55937 0.39375,-5.31562 2.75625,-6.69375c8.85937,-5.11875 16.14375,-12.6 21.2625,-21.2625c1.37812,-2.3625 4.13437,-3.34688 6.69375,-2.75625l17.91563,4.725l6.10312,-22.64062l-17.91563,-4.725c-2.55937,-0.59062 -4.33125,-2.95312 -4.33125,-5.70937c0,-5.11875 -0.7875,-10.2375 -1.96875,-15.15937v0c-1.37812,-4.92188 -3.34687,-9.64687 -5.70937,-14.175c-1.37813,-2.3625 -0.98437,-5.11875 0.98438,-7.0875l12.99375,-12.99375l-16.5375,-16.5375l-12.99375,12.99375c-1.96875,1.96875 -4.725,2.3625 -7.0875,0.98438c-8.85938,-5.11875 -18.9,-7.67812 -29.1375,-7.875c-2.55937,0 -4.92187,-1.77187 -5.70937,-4.33125l-4.725,-17.91562l-23.03438,6.3l4.725,17.91562c0.59063,2.55938 -0.39375,5.31563 -2.75625,6.69375c-8.85937,5.11875 -16.14375,12.6 -21.2625,21.2625c-1.37812,2.3625 -4.13438,3.34688 -6.69375,2.75625l-17.91562,-4.725l-6.10312,22.64063l17.91563,4.725c2.55937,0.59062 4.33125,2.95313 4.33125,5.70937c0,5.11875 0.7875,10.2375 1.96875,15.15937c1.37812,4.92188 3.34687,9.64688 5.70937,14.175c1.37812,2.3625 0.98438,5.11875 -0.98438,7.0875l-12.99375,12.99375l16.5375,16.5375l13.19063,-12.99375c1.18125,-1.37813 2.75625,-1.96875 4.33125,-1.96875zM126.98438,162.81562c-6.3,0 -12.6,-1.575 -18.30937,-4.92187c-8.46562,-4.92187 -14.56875,-12.79688 -17.12812,-22.24687c-2.55938,-9.45 -1.18125,-19.29375 3.74062,-27.95625c4.92188,-8.46563 12.79688,-14.56875 22.24688,-17.12813c19.49062,-5.31563 39.76875,6.49687 45.08437,25.9875c2.55938,9.45 1.18125,19.29375 -3.74062,27.95625c-4.92187,8.46562 -12.79688,14.56875 -22.24687,17.12812v0c-3.34687,0.7875 -6.49687,1.18125 -9.64688,1.18125zM135.05625,155.72812v0zM126.98438,100.99687c-2.16563,0 -4.33125,0.19688 -6.49687,0.7875c-6.49687,1.77187 -11.8125,5.90625 -15.15937,11.61562c-3.34688,5.70938 -4.13438,12.40313 -2.55937,18.9c1.77187,6.49687 5.90625,11.8125 11.61562,15.15937c5.70937,3.34687 12.40313,4.13438 18.9,2.55938v0c6.49687,-1.77188 11.8125,-5.90625 15.15938,-11.61563c3.34687,-5.70937 4.13437,-12.40312 2.55937,-18.9c-2.95312,-11.025 -12.99375,-18.50625 -24.01875,-18.50625z"/></g></g><path d="M126,252c-69.58788,0 -126,-56.41212 -126,-126v0c0,-69.58788 56.41212,-126 126,-126v0c69.58788,0 126,56.41212 126,126v0c0,69.58788 -56.41212,126 -126,126z" fill="none"/><path d="M126,246.96c-66.80436,0 -120.96,-54.15564 -120.96,-120.96v0c0,-66.80436 54.15564,-120.96 120.96,-120.96h0c66.80436,0 120.96,54.15564 120.96,120.96v0c0,66.80436 -54.15564,120.96 -120.96,120.96z" fill="none"/></g></svg>
